<svg width="28" height="28" viewBox="0 0 28 28" fill="none" xmlns="http://www.w3.org/2000/svg">
<path fill-rule="evenodd" clip-rule="evenodd" d="M2.33325 8.16667C2.33325 7.52233 2.76853 7 3.30547 7H24.6944C25.2313 7 25.6666 7.52233 25.6666 8.16667C25.6666 8.811 25.2313 9.33333 24.6944 9.33333H3.30547C2.76853 9.33333 2.33325 8.811 2.33325 8.16667Z" fill="#F3F2ED" fill-opacity="0.921569"/>
<path fill-rule="evenodd" clip-rule="evenodd" d="M2.33325 14C2.33325 13.3557 2.76853 12.8333 3.30547 12.8333H24.6944C25.2313 12.8333 25.6666 13.3557 25.6666 14C25.6666 14.6443 25.2313 15.1667 24.6944 15.1667H3.30547C2.76853 15.1667 2.33325 14.6443 2.33325 14Z" fill="#F3F2ED" fill-opacity="0.921569"/>
<path fill-rule="evenodd" clip-rule="evenodd" d="M2.33325 19.8333C2.33325 19.189 2.76853 18.6667 3.30547 18.6667H24.6944C25.2313 18.6667 25.6666 19.189 25.6666 19.8333C25.6666 20.4777 25.2313 21 24.6944 21H3.30547C2.76853 21 2.33325 20.4777 2.33325 19.8333Z" fill="#F3F2ED" fill-opacity="0.921569"/>
</svg>
