<svg width="313" height="220" viewBox="0 0 313 220" fill="none" xmlns="http://www.w3.org/2000/svg">
<path d="M44.4988 73.6838V114.78C44.4988 119.491 43.5972 123.563 41.794 126.995C40.0489 130.427 37.5186 133.074 34.203 134.935C30.8874 136.738 26.9029 137.64 22.2494 137.64C17.6541 137.64 13.7277 136.738 10.4703 134.935C7.21288 133.132 4.68255 130.631 2.87933 127.431C1.07611 124.232 0.116337 120.509 0 116.263H9.68503C9.80137 118.939 10.3249 121.236 11.2556 123.156C12.2444 125.017 13.6405 126.472 15.4437 127.519C17.3051 128.507 19.5737 129.002 22.2494 129.002C24.9833 129.002 27.281 128.478 29.1424 127.431C31.0037 126.384 32.3998 124.843 33.3305 122.807C34.3193 120.713 34.8138 118.183 34.8138 115.216V73.6838H44.4988Z" fill="#35291F"/>
<path d="M87.5716 137.64C83.0344 137.64 78.8172 136.826 74.92 135.197C71.0808 133.51 67.7071 131.183 64.7987 128.217C61.9484 125.25 59.7089 121.789 58.0802 117.834C56.5097 113.82 55.7244 109.516 55.7244 104.92C55.7244 100.325 56.5097 96.0495 58.0802 92.0941C59.7089 88.1386 61.9484 84.7067 64.7987 81.7983C67.7071 78.8317 71.0808 76.534 74.92 74.9053C78.8172 73.2184 83.0344 72.375 87.5716 72.375C92.1087 72.375 96.2968 73.2184 100.136 74.9053C104.033 76.534 107.407 78.8317 110.257 81.7983C113.166 84.7067 115.405 88.1386 116.976 92.0941C118.604 96.0495 119.419 100.325 119.419 104.92C119.419 109.516 118.604 113.82 116.976 117.834C115.405 121.789 113.166 125.25 110.257 128.217C107.407 131.183 104.033 133.51 100.136 135.197C96.2968 136.826 92.1087 137.64 87.5716 137.64ZM87.5716 129.002C90.8872 129.002 93.8828 128.391 96.5586 127.17C99.2343 125.948 101.532 124.232 103.452 122.022C105.429 119.811 106.913 117.252 107.901 114.343C108.948 111.377 109.472 108.236 109.472 104.92C109.472 101.605 108.948 98.4926 107.901 95.5842C106.913 92.6758 105.429 90.1454 103.452 87.9932C101.532 85.7828 99.2343 84.0668 96.5586 82.8453C93.8828 81.6238 90.8872 81.013 87.5716 81.013C84.256 81.013 81.2603 81.6238 78.5846 82.8453C75.9088 84.0668 73.5821 85.7828 71.6044 87.9932C69.6848 90.1454 68.2015 92.6758 67.1545 95.5842C66.1656 98.4926 65.6712 101.605 65.6712 104.92C65.6712 108.236 66.1656 111.377 67.1545 114.343C68.2015 117.252 69.6848 119.811 71.6044 122.022C73.5821 124.232 75.9088 125.948 78.5846 127.17C81.2603 128.391 84.256 129.002 87.5716 129.002Z" fill="#35291F"/>
<path d="M140.687 136.331H131.089V73.6838H154.473C161.686 73.6838 167.328 75.3998 171.4 78.8317C175.472 82.2055 177.508 87.0043 177.508 93.2284C177.508 97.7073 176.17 101.576 173.494 104.833C170.818 108.09 167.096 110.272 162.326 111.377L179.34 136.331H167.823L152.205 112.773H140.687V136.331ZM140.687 81.711V104.746H153.862C158.283 104.746 161.715 103.786 164.158 101.866C166.601 99.8886 167.823 97.0093 167.823 93.2284C167.823 89.4474 166.601 86.5972 164.158 84.6776C161.715 82.6999 158.283 81.711 153.862 81.711H140.687Z" fill="#35291F"/>
<path d="M217.851 137.64C213.313 137.64 209.096 136.826 205.199 135.197C201.36 133.51 197.986 131.183 195.078 128.217C192.227 125.25 189.988 121.789 188.359 117.834C186.789 113.82 186.003 109.516 186.003 104.92C186.003 100.325 186.789 96.0495 188.359 92.0941C189.988 88.1386 192.227 84.7067 195.078 81.7983C197.986 78.8317 201.36 76.534 205.199 74.9053C209.096 73.2184 213.313 72.375 217.851 72.375C222.388 72.375 226.576 73.2184 230.415 74.9053C234.312 76.534 237.686 78.8317 240.536 81.7983C243.445 84.7067 245.684 88.1386 247.255 92.0941C248.883 96.0495 249.698 100.325 249.698 104.92C249.698 109.516 248.883 113.82 247.255 117.834C245.684 121.789 243.445 125.25 240.536 128.217C237.686 131.183 234.312 133.51 230.415 135.197C226.576 136.826 222.388 137.64 217.851 137.64ZM217.851 129.002C221.166 129.002 224.162 128.391 226.838 127.17C229.513 125.948 231.811 124.232 233.731 122.022C235.708 119.811 237.192 117.252 238.18 114.343C239.227 111.377 239.751 108.236 239.751 104.92C239.751 101.605 239.227 98.4926 238.18 95.5842C237.192 92.6758 235.708 90.1454 233.731 87.9932C231.811 85.7828 229.513 84.0668 226.838 82.8453C224.162 81.6238 221.166 81.013 217.851 81.013C214.535 81.013 211.539 81.6238 208.864 82.8453C206.188 84.0668 203.861 85.7828 201.883 87.9932C199.964 90.1454 198.48 92.6758 197.433 95.5842C196.445 98.4926 195.95 101.605 195.95 104.92C195.95 108.236 196.445 111.377 197.433 114.343C198.48 117.252 199.964 119.811 201.883 122.022C203.861 124.232 206.188 125.948 208.864 127.17C211.539 128.391 214.535 129.002 217.851 129.002Z" fill="#35291F"/>
<mask id="mask0_151_177" style="mask-type:alpha" maskUnits="userSpaceOnUse" x="55" y="0" width="65" height="66">
<path d="M87.7964 65.2649C83.2593 65.2649 79.0421 64.4506 75.1448 62.8218C71.3057 61.135 67.9319 58.8082 65.0235 55.8416C62.1732 52.875 59.9337 49.414 58.305 45.4586C56.7345 41.445 55.9492 37.1405 55.9492 32.5452C55.9492 27.9499 56.7345 23.6745 58.305 19.7191C59.9337 15.7636 62.1732 12.3317 65.0235 9.42328C67.9319 6.45669 71.3057 4.15904 75.1448 2.53032C79.0421 0.843441 83.2593 0 87.7964 0C92.3335 0 96.5216 0.843441 100.361 2.53032C104.258 4.15904 107.632 6.45669 110.482 9.42328C113.39 12.3317 115.63 15.7636 117.201 19.7191C118.829 23.6745 119.644 27.9499 119.644 32.5452C119.644 37.1405 118.829 41.445 117.201 45.4586C115.63 49.414 113.39 52.875 110.482 55.8416C107.632 58.8082 104.258 61.135 100.361 62.8218C96.5216 64.4506 92.3335 65.2649 87.7964 65.2649ZM87.7964 56.6269C91.112 56.6269 94.1077 56.0161 96.7834 54.7946C99.4592 53.5731 101.757 51.8571 103.676 49.6467C105.654 47.4363 107.137 44.8769 108.126 41.9685C109.173 39.0019 109.697 35.8608 109.697 32.5452C109.697 29.2296 109.173 26.1176 108.126 23.2092C107.137 20.3008 105.654 17.7704 103.676 15.6182C101.757 13.4078 99.4592 11.6918 96.7834 10.4703C94.1077 9.24877 91.112 8.63801 87.7964 8.63801C84.4808 8.63801 81.4851 9.24877 78.8094 10.4703C76.1336 11.6918 73.8069 13.4078 71.8292 15.6182C69.9096 17.7704 68.4263 20.3008 67.3793 23.2092C66.3904 26.1176 65.896 29.2296 65.896 32.5452C65.896 35.8608 66.3904 39.0019 67.3793 41.9685C68.4263 44.8769 69.9096 47.4363 71.8292 49.6467C73.8069 51.8571 76.1336 53.5731 78.8094 54.7946C81.4851 56.0161 84.4808 56.6269 87.7964 56.6269Z" fill="#35291F"/>
</mask>
<g mask="url(#mask0_151_177)">
<rect width="111.792" height="51.8062" transform="matrix(1 0 0 -1 31.4102 89.9805)" fill="#35291F"/>
</g>
<path d="M48.4259 201.441C48.4259 204.524 47.6115 207.403 45.9828 210.079C44.3541 212.696 41.911 214.819 38.6536 216.448C35.3962 218.077 31.3826 218.891 26.6128 218.891C21.9011 218.891 17.8584 218.077 14.4847 216.448C11.1691 214.761 8.60965 212.464 6.80643 209.555C5.00321 206.647 4.01435 203.273 3.83984 199.434H8.20247C8.60965 204.204 10.2965 208.043 13.2631 210.951C16.2879 213.86 20.7378 215.314 26.6128 215.314C29.812 215.314 32.7204 214.79 35.338 213.743C38.0138 212.638 40.1369 211.068 41.7075 209.032C43.278 206.996 44.0633 204.611 44.0633 201.877C44.0633 198.212 42.9581 195.478 40.7477 193.675C38.5954 191.814 34.989 190.36 29.9284 189.313L22.7737 187.829C20.7959 187.422 18.7891 186.869 16.7532 186.171C14.7755 185.473 12.9432 184.543 11.2563 183.379C9.6276 182.158 8.28972 180.616 7.24269 178.755C6.25383 176.894 5.7594 174.567 5.7594 171.775C5.7594 168.576 6.63193 165.667 8.37698 163.05C10.122 160.432 12.536 158.367 15.6189 156.855C18.7019 155.284 22.2792 154.499 26.351 154.499C30.2483 154.499 33.7384 155.284 36.8213 156.855C39.9624 158.425 42.5218 160.636 44.4995 163.486C46.4773 166.278 47.5534 169.652 47.7279 173.607H43.278C43.1035 170.582 42.2891 167.907 40.8349 165.58C39.3807 163.253 37.4321 161.421 34.989 160.083C32.5459 158.745 29.6666 158.076 26.351 158.076C22.8609 158.076 19.8943 158.745 17.4512 160.083C15.0663 161.363 13.234 163.02 11.9543 165.056C10.7328 167.092 10.122 169.274 10.122 171.6C10.122 174.451 10.82 176.69 12.2161 178.319C13.6121 179.889 15.4153 181.111 17.6257 181.983C19.8943 182.856 22.3374 183.583 24.955 184.165L32.0224 185.648C37.1994 186.753 41.213 188.469 44.0633 190.796C46.9717 193.064 48.4259 196.613 48.4259 201.441Z" fill="#35291F"/>
<path d="M81.0059 218.019H76.8177V159.123H55.3536V155.371H102.383V159.123H81.0059V218.019Z" fill="#35291F"/>
<path d="M157.006 155.371V197.34C157.006 201.935 156.075 205.891 154.213 209.206C152.352 212.464 149.764 214.965 146.448 216.71C143.191 218.455 139.41 219.327 135.105 219.327C130.801 219.327 126.991 218.455 123.675 216.71C120.359 214.965 117.771 212.464 115.91 209.206C114.106 205.891 113.205 201.935 113.205 197.34V155.371H117.48V197.689C117.48 201.353 118.236 204.524 119.749 207.199C121.319 209.875 123.442 211.94 126.118 213.394C128.794 214.848 131.79 215.576 135.105 215.576C138.479 215.576 141.475 214.848 144.092 213.394C146.768 211.94 148.891 209.875 150.462 207.199C152.032 204.524 152.817 201.353 152.817 197.689V155.371H157.006Z" fill="#35291F"/>
<path d="M189.38 218.019H173.151V155.371H189.38C196.127 155.371 201.799 156.709 206.394 159.385C210.989 162.002 214.45 165.638 216.777 170.291C219.104 174.945 220.267 180.355 220.267 186.52C220.267 192.512 219.075 197.892 216.69 202.662C214.305 207.374 210.786 211.126 206.132 213.918C201.537 216.652 195.953 218.019 189.38 218.019ZM177.426 159.036V214.354H189.38C195.08 214.354 199.908 213.191 203.864 210.864C207.819 208.479 210.815 205.192 212.851 201.004C214.945 196.758 215.992 191.93 215.992 186.52C215.992 180.994 214.974 176.166 212.938 172.037C210.902 167.907 207.906 164.707 203.951 162.439C199.995 160.17 195.138 159.036 189.38 159.036H177.426Z" fill="#35291F"/>
<path d="M237.368 218.019H233.093V155.371H237.368V218.019Z" fill="#35291F"/>
<path d="M281.502 219.327C276.965 219.327 272.777 218.484 268.938 216.797C265.099 215.052 261.754 212.696 258.904 209.73C256.112 206.763 253.93 203.302 252.36 199.347C250.847 195.333 250.091 191.087 250.091 186.608C250.091 182.129 250.847 177.912 252.36 173.956C253.93 170.001 256.112 166.54 258.904 163.573C261.754 160.606 265.099 158.28 268.938 156.593C272.777 154.906 276.965 154.062 281.502 154.062C286.039 154.062 290.227 154.906 294.066 156.593C297.906 158.28 301.221 160.606 304.013 163.573C306.863 166.54 309.074 170.001 310.644 173.956C312.215 177.912 313 182.129 313 186.608C313 191.087 312.215 195.333 310.644 199.347C309.074 203.302 306.863 206.763 304.013 209.73C301.221 212.696 297.906 215.052 294.066 216.797C290.227 218.484 286.039 219.327 281.502 219.327ZM281.502 215.576C285.516 215.576 289.151 214.819 292.409 213.307C295.724 211.795 298.574 209.73 300.959 207.112C303.402 204.494 305.264 201.441 306.543 197.951C307.881 194.402 308.55 190.621 308.55 186.608C308.55 182.594 307.881 178.842 306.543 175.352C305.264 171.804 303.402 168.75 300.959 166.191C298.574 163.573 295.724 161.537 292.409 160.083C289.151 158.571 285.516 157.814 281.502 157.814C277.547 157.814 273.911 158.571 270.595 160.083C267.338 161.537 264.488 163.573 262.045 166.191C259.66 168.75 257.798 171.804 256.461 175.352C255.123 178.842 254.454 182.594 254.454 186.608C254.454 190.621 255.123 194.402 256.461 197.951C257.798 201.441 259.66 204.494 262.045 207.112C264.488 209.73 267.338 211.795 270.595 213.307C273.911 214.819 277.547 215.576 281.502 215.576Z" fill="#35291F"/>
</svg>
