<svg width="213" height="59" viewBox="0 0 213 59" fill="none" xmlns="http://www.w3.org/2000/svg">
<path d="M16.8 27.024V42.096C16.8 43.824 16.4693 45.3173 15.808 46.576C15.168 47.8347 14.24 48.8053 13.024 49.488C11.808 50.1493 10.3467 50.48 8.64 50.48C6.95467 50.48 5.51467 50.1493 4.32 49.488C3.12533 48.8267 2.19733 47.9093 1.536 46.736C0.874667 45.5627 0.522667 44.1973 0.48 42.64H4.032C4.07467 43.6213 4.26667 44.464 4.608 45.168C4.97067 45.8507 5.48267 46.384 6.144 46.768C6.82667 47.1307 7.65867 47.312 8.64 47.312C9.64267 47.312 10.4853 47.12 11.168 46.736C11.8507 46.352 12.3627 45.7867 12.704 45.04C13.0667 44.272 13.248 43.344 13.248 42.256V27.024H16.8ZM32.597 50.48C30.933 50.48 29.3863 50.1813 27.957 49.584C26.549 48.9653 25.3117 48.112 24.245 47.024C23.1997 45.936 22.3783 44.6667 21.781 43.216C21.205 41.744 20.917 40.1653 20.917 38.48C20.917 36.7947 21.205 35.2267 21.781 33.776C22.3783 32.3253 23.1997 31.0667 24.245 30C25.3117 28.912 26.549 28.0693 27.957 27.472C29.3863 26.8533 30.933 26.544 32.597 26.544C34.261 26.544 35.797 26.8533 37.205 27.472C38.6343 28.0693 39.8717 28.912 40.917 30C41.9837 31.0667 42.805 32.3253 43.381 33.776C43.9783 35.2267 44.277 36.7947 44.277 38.48C44.277 40.1653 43.9783 41.744 43.381 43.216C42.805 44.6667 41.9837 45.936 40.917 47.024C39.8717 48.112 38.6343 48.9653 37.205 49.584C35.797 50.1813 34.261 50.48 32.597 50.48ZM32.597 47.312C33.813 47.312 34.9117 47.088 35.893 46.64C36.8743 46.192 37.717 45.5627 38.421 44.752C39.1463 43.9413 39.6903 43.0027 40.053 41.936C40.437 40.848 40.629 39.696 40.629 38.48C40.629 37.264 40.437 36.1227 40.053 35.056C39.6903 33.9893 39.1463 33.0613 38.421 32.272C37.717 31.4613 36.8743 30.832 35.893 30.384C34.9117 29.936 33.813 29.712 32.597 29.712C31.381 29.712 30.2823 29.936 29.301 30.384C28.3197 30.832 27.4663 31.4613 26.741 32.272C26.037 33.0613 25.493 33.9893 25.109 35.056C24.7463 36.1227 24.565 37.264 24.565 38.48C24.565 39.696 24.7463 40.848 25.109 41.936C25.493 43.0027 26.037 43.9413 26.741 44.752C27.4663 45.5627 28.3197 46.192 29.301 46.64C30.2823 47.088 31.381 47.312 32.597 47.312ZM52.0772 50H48.5572V27.024H57.1332C59.7786 27.024 61.8479 27.6533 63.3412 28.912C64.8346 30.1493 65.5812 31.9093 65.5812 34.192C65.5812 35.8347 65.0906 37.2533 64.1092 38.448C63.1279 39.6427 61.7626 40.4427 60.0132 40.848L66.2533 50H62.0292L56.3012 41.36H52.0772V50ZM52.0772 29.968V38.416H56.9092C58.5306 38.416 59.7892 38.064 60.6852 37.36C61.5812 36.6347 62.0292 35.5787 62.0292 34.192C62.0292 32.8053 61.5812 31.76 60.6852 31.056C59.7892 30.3307 58.5306 29.968 56.9092 29.968H52.0772ZM80.377 50.48C78.713 50.48 77.1663 50.1813 75.737 49.584C74.329 48.9653 73.0917 48.112 72.025 47.024C70.9797 45.936 70.1583 44.6667 69.561 43.216C68.985 41.744 68.697 40.1653 68.697 38.48C68.697 36.7947 68.985 35.2267 69.561 33.776C70.1583 32.3253 70.9797 31.0667 72.025 30C73.0917 28.912 74.329 28.0693 75.737 27.472C77.1663 26.8533 78.713 26.544 80.377 26.544C82.041 26.544 83.577 26.8533 84.985 27.472C86.4143 28.0693 87.6517 28.912 88.697 30C89.7637 31.0667 90.585 32.3253 91.161 33.776C91.7583 35.2267 92.057 36.7947 92.057 38.48C92.057 40.1653 91.7583 41.744 91.161 43.216C90.585 44.6667 89.7637 45.936 88.697 47.024C87.6517 48.112 86.4143 48.9653 84.985 49.584C83.577 50.1813 82.041 50.48 80.377 50.48ZM80.377 47.312C81.593 47.312 82.6917 47.088 83.673 46.64C84.6543 46.192 85.497 45.5627 86.201 44.752C86.9263 43.9413 87.4703 43.0027 87.833 41.936C88.217 40.848 88.409 39.696 88.409 38.48C88.409 37.264 88.217 36.1227 87.833 35.056C87.4703 33.9893 86.9263 33.0613 86.201 32.272C85.497 31.4613 84.6543 30.832 83.673 30.384C82.6917 29.936 81.593 29.712 80.377 29.712C79.161 29.712 78.0623 29.936 77.081 30.384C76.0997 30.832 75.2463 31.4613 74.521 32.272C73.817 33.0613 73.273 33.9893 72.889 35.056C72.5263 36.1227 72.345 37.264 72.345 38.48C72.345 39.696 72.5263 40.848 72.889 41.936C73.273 43.0027 73.817 43.9413 74.521 44.752C75.2463 45.5627 76.0997 46.192 77.081 46.64C78.0623 47.088 79.161 47.312 80.377 47.312ZM114.001 43.92C114.001 45.0507 113.703 46.1067 113.105 47.088C112.508 48.048 111.612 48.8267 110.417 49.424C109.223 50.0213 107.751 50.32 106.001 50.32C104.273 50.32 102.791 50.0213 101.553 49.424C100.337 48.8053 99.3986 47.9627 98.7373 46.896C98.0759 45.8293 97.7133 44.592 97.6493 43.184H99.2493C99.3986 44.9333 100.017 46.3413 101.105 47.408C102.215 48.4747 103.847 49.008 106.001 49.008C107.175 49.008 108.241 48.816 109.201 48.432C110.183 48.0267 110.961 47.4507 111.537 46.704C112.113 45.9573 112.401 45.0827 112.401 44.08C112.401 42.736 111.996 41.7333 111.185 41.072C110.396 40.3893 109.073 39.856 107.217 39.472L104.593 38.928C103.868 38.7787 103.132 38.576 102.385 38.32C101.66 38.064 100.988 37.7227 100.369 37.296C99.7719 36.848 99.2813 36.2827 98.8973 35.6C98.5346 34.9173 98.3533 34.064 98.3533 33.04C98.3533 31.8667 98.6733 30.8 99.3133 29.84C99.9533 28.88 100.839 28.1227 101.969 27.568C103.1 26.992 104.412 26.704 105.905 26.704C107.335 26.704 108.615 26.992 109.745 27.568C110.897 28.144 111.836 28.9547 112.561 30C113.287 31.024 113.681 32.2613 113.745 33.712H112.113C112.049 32.6027 111.751 31.6213 111.217 30.768C110.684 29.9147 109.969 29.2427 109.073 28.752C108.177 28.2613 107.121 28.016 105.905 28.016C104.625 28.016 103.537 28.2613 102.641 28.752C101.767 29.2213 101.095 29.8293 100.625 30.576C100.177 31.3227 99.9533 32.1227 99.9533 32.976C99.9533 34.0213 100.209 34.8427 100.721 35.44C101.233 36.016 101.895 36.464 102.705 36.784C103.537 37.104 104.433 37.3707 105.393 37.584L107.985 38.128C109.884 38.5333 111.356 39.1627 112.401 40.016C113.468 40.848 114.001 42.1493 114.001 43.92ZM125.95 50H124.414V28.4H116.542V27.024H133.79V28.4H125.95V50ZM153.823 27.024V42.416C153.823 44.1013 153.482 45.552 152.799 46.768C152.116 47.9627 151.167 48.88 149.951 49.52C148.756 50.16 147.37 50.48 145.791 50.48C144.212 50.48 142.815 50.16 141.599 49.52C140.383 48.88 139.434 47.9627 138.751 46.768C138.09 45.552 137.759 44.1013 137.759 42.416V27.024H139.327V42.544C139.327 43.888 139.604 45.0507 140.159 46.032C140.735 47.0133 141.514 47.7707 142.495 48.304C143.476 48.8373 144.575 49.104 145.791 49.104C147.028 49.104 148.127 48.8373 149.087 48.304C150.068 47.7707 150.847 47.0133 151.423 46.032C151.999 45.0507 152.287 43.888 152.287 42.544V27.024H153.823ZM165.696 50H159.744V27.024H165.696C168.171 27.024 170.251 27.5147 171.936 28.496C173.622 29.456 174.891 30.7893 175.744 32.496C176.598 34.2027 177.024 36.1867 177.024 38.448C177.024 40.6453 176.587 42.6187 175.712 44.368C174.838 46.096 173.547 47.472 171.84 48.496C170.155 49.4987 168.107 50 165.696 50ZM161.312 28.368V48.656H165.696C167.787 48.656 169.558 48.2293 171.008 47.376C172.459 46.5013 173.558 45.296 174.304 43.76C175.072 42.2027 175.456 40.432 175.456 38.448C175.456 36.4213 175.083 34.6507 174.336 33.136C173.59 31.6213 172.491 30.448 171.04 29.616C169.59 28.784 167.808 28.368 165.696 28.368H161.312ZM183.296 50H181.728V27.024H183.296V50ZM199.482 50.48C197.818 50.48 196.282 50.1707 194.874 49.552C193.466 48.912 192.24 48.048 191.194 46.96C190.17 45.872 189.37 44.6027 188.794 43.152C188.24 41.68 187.962 40.1227 187.962 38.48C187.962 36.8373 188.24 35.2907 188.794 33.84C189.37 32.3893 190.17 31.12 191.194 30.032C192.24 28.944 193.466 28.0907 194.874 27.472C196.282 26.8533 197.818 26.544 199.482 26.544C201.146 26.544 202.682 26.8533 204.09 27.472C205.498 28.0907 206.714 28.944 207.738 30.032C208.784 31.12 209.594 32.3893 210.17 33.84C210.746 35.2907 211.034 36.8373 211.034 38.48C211.034 40.1227 210.746 41.68 210.17 43.152C209.594 44.6027 208.784 45.872 207.738 46.96C206.714 48.048 205.498 48.912 204.09 49.552C202.682 50.1707 201.146 50.48 199.482 50.48ZM199.482 49.104C200.954 49.104 202.288 48.8267 203.482 48.272C204.698 47.7173 205.744 46.96 206.618 46C207.514 45.04 208.197 43.92 208.666 42.64C209.157 41.3387 209.402 39.952 209.402 38.48C209.402 37.008 209.157 35.632 208.666 34.352C208.197 33.0507 207.514 31.9307 206.618 30.992C205.744 30.032 204.698 29.2853 203.482 28.752C202.288 28.1973 200.954 27.92 199.482 27.92C198.032 27.92 196.698 28.1973 195.482 28.752C194.288 29.2853 193.242 30.032 192.346 30.992C191.472 31.9307 190.789 33.0507 190.298 34.352C189.808 35.632 189.562 37.008 189.562 38.48C189.562 39.952 189.808 41.3387 190.298 42.64C190.789 43.92 191.472 45.04 192.346 46C193.242 46.96 194.288 47.7173 195.482 48.272C196.698 48.8267 198.032 49.104 199.482 49.104Z" fill="#35291F"/>
<mask id="mask0_151_162" style="mask-type:alpha" maskUnits="userSpaceOnUse" x="21" y="0" width="24" height="24">
<path d="M32.68 23.936C31.016 23.936 29.4693 23.6373 28.04 23.04C26.632 22.4213 25.3947 21.568 24.328 20.48C23.2827 19.392 22.4613 18.1227 21.864 16.672C21.288 15.2 21 13.6213 21 11.936C21 10.2507 21.288 8.68267 21.864 7.232C22.4613 5.78133 23.2827 4.52267 24.328 3.456C25.3947 2.368 26.632 1.52533 28.04 0.927999C29.4693 0.309333 31.016 0 32.68 0C34.344 0 35.88 0.309333 37.288 0.927999C38.7173 1.52533 39.9547 2.368 41 3.456C42.0667 4.52267 42.888 5.78133 43.464 7.232C44.0613 8.68267 44.36 10.2507 44.36 11.936C44.36 13.6213 44.0613 15.2 43.464 16.672C42.888 18.1227 42.0667 19.392 41 20.48C39.9547 21.568 38.7173 22.4213 37.288 23.04C35.88 23.6373 34.344 23.936 32.68 23.936ZM32.68 20.768C33.896 20.768 34.9947 20.544 35.976 20.096C36.9573 19.648 37.8 19.0187 38.504 18.208C39.2293 17.3973 39.7733 16.4587 40.136 15.392C40.52 14.304 40.712 13.152 40.712 11.936C40.712 10.72 40.52 9.57867 40.136 8.512C39.7733 7.44533 39.2293 6.51733 38.504 5.728C37.8 4.91733 36.9573 4.288 35.976 3.84C34.9947 3.392 33.896 3.168 32.68 3.168C31.464 3.168 30.3653 3.392 29.384 3.84C28.4027 4.288 27.5493 4.91733 26.824 5.728C26.12 6.51733 25.576 7.44533 25.192 8.512C24.8293 9.57867 24.648 10.72 24.648 11.936C24.648 13.152 24.8293 14.304 25.192 15.392C25.576 16.4587 26.12 17.3973 26.824 18.208C27.5493 19.0187 28.4027 19.648 29.384 20.096C30.3653 20.544 31.464 20.768 32.68 20.768Z" fill="#35291F"/>
</mask>
<g mask="url(#mask0_151_162)">
<rect width="41" height="19" transform="matrix(1 0 0 -1 12 33)" fill="#35291F"/>
</g>
</svg>
