<svg width="313" height="220" viewBox="0 0 313 220" fill="none" xmlns="http://www.w3.org/2000/svg">
<path d="M44.4988 73.6799V114.776C44.4988 119.487 43.5972 123.559 41.794 126.991C40.0489 130.423 37.5186 133.07 34.203 134.931C30.8874 136.734 26.9029 137.636 22.2494 137.636C17.6541 137.636 13.7277 136.734 10.4703 134.931C7.21288 133.128 4.68255 130.627 2.87933 127.427C1.07611 124.228 0.116337 120.505 0 116.259H9.68503C9.80137 118.935 10.3249 121.233 11.2556 123.152C12.2444 125.013 13.6405 126.468 15.4437 127.515C17.3051 128.504 19.5737 128.998 22.2494 128.998C24.9833 128.998 27.281 128.474 29.1424 127.427C31.0037 126.38 32.3998 124.839 33.3305 122.803C34.3193 120.709 34.8138 118.179 34.8138 115.212V73.6799H44.4988Z" fill="white"/>
<path d="M87.5716 137.636C83.0344 137.636 78.8172 136.822 74.92 135.193C71.0808 133.506 67.7071 131.179 64.7987 128.213C61.9484 125.246 59.7089 121.785 58.0802 117.83C56.5097 113.816 55.7244 109.512 55.7244 104.916C55.7244 100.321 56.5097 96.0456 58.0802 92.0902C59.7089 88.1347 61.9484 84.7028 64.7987 81.7944C67.7071 78.8278 71.0808 76.5301 74.92 74.9014C78.8172 73.2145 83.0344 72.3711 87.5716 72.3711C92.1087 72.3711 96.2968 73.2145 100.136 74.9014C104.033 76.5301 107.407 78.8278 110.257 81.7944C113.166 84.7028 115.405 88.1347 116.976 92.0902C118.604 96.0456 119.419 100.321 119.419 104.916C119.419 109.512 118.604 113.816 116.976 117.83C115.405 121.785 113.166 125.246 110.257 128.213C107.407 131.179 104.033 133.506 100.136 135.193C96.2968 136.822 92.1087 137.636 87.5716 137.636ZM87.5716 128.998C90.8872 128.998 93.8828 128.387 96.5586 127.166C99.2343 125.944 101.532 124.228 103.452 122.018C105.429 119.807 106.913 117.248 107.901 114.34C108.948 111.373 109.472 108.232 109.472 104.916C109.472 101.601 108.948 98.4887 107.901 95.5803C106.913 92.6719 105.429 90.1415 103.452 87.9893C101.532 85.7789 99.2343 84.0629 96.5586 82.8414C93.8828 81.6199 90.8872 81.0091 87.5716 81.0091C84.256 81.0091 81.2603 81.6199 78.5846 82.8414C75.9088 84.0629 73.5821 85.7789 71.6044 87.9893C69.6848 90.1415 68.2015 92.6719 67.1545 95.5803C66.1656 98.4887 65.6712 101.601 65.6712 104.916C65.6712 108.232 66.1656 111.373 67.1545 114.34C68.2015 117.248 69.6848 119.807 71.6044 122.018C73.5821 124.228 75.9088 125.944 78.5846 127.166C81.2603 128.387 84.256 128.998 87.5716 128.998Z" fill="white"/>
<path d="M140.687 136.327H131.089V73.6799H154.473C161.686 73.6799 167.328 75.3958 171.4 78.8278C175.472 82.2015 177.508 87.0004 177.508 93.2245C177.508 97.7034 176.17 101.572 173.494 104.829C170.818 108.086 167.096 110.268 162.326 111.373L179.34 136.327H167.823L152.205 112.769H140.687V136.327ZM140.687 81.7071V104.742H153.862C158.283 104.742 161.715 103.782 164.158 101.862C166.601 99.8847 167.823 97.0054 167.823 93.2245C167.823 89.4435 166.601 86.5933 164.158 84.6737C161.715 82.696 158.283 81.7071 153.862 81.7071H140.687Z" fill="white"/>
<path d="M217.851 137.636C213.313 137.636 209.096 136.822 205.199 135.193C201.36 133.506 197.986 131.179 195.078 128.213C192.227 125.246 189.988 121.785 188.359 117.83C186.789 113.816 186.003 109.512 186.003 104.916C186.003 100.321 186.789 96.0456 188.359 92.0902C189.988 88.1347 192.227 84.7028 195.078 81.7944C197.986 78.8278 201.36 76.5301 205.199 74.9014C209.096 73.2145 213.313 72.3711 217.851 72.3711C222.388 72.3711 226.576 73.2145 230.415 74.9014C234.312 76.5301 237.686 78.8278 240.536 81.7944C243.445 84.7028 245.684 88.1347 247.255 92.0902C248.883 96.0456 249.698 100.321 249.698 104.916C249.698 109.512 248.883 113.816 247.255 117.83C245.684 121.785 243.445 125.246 240.536 128.213C237.686 131.179 234.312 133.506 230.415 135.193C226.576 136.822 222.388 137.636 217.851 137.636ZM217.851 128.998C221.166 128.998 224.162 128.387 226.838 127.166C229.513 125.944 231.811 124.228 233.731 122.018C235.708 119.807 237.192 117.248 238.18 114.34C239.227 111.373 239.751 108.232 239.751 104.916C239.751 101.601 239.227 98.4887 238.18 95.5803C237.192 92.6719 235.708 90.1415 233.731 87.9893C231.811 85.7789 229.513 84.0629 226.838 82.8414C224.162 81.6199 221.166 81.0091 217.851 81.0091C214.535 81.0091 211.539 81.6199 208.864 82.8414C206.188 84.0629 203.861 85.7789 201.883 87.9893C199.964 90.1415 198.48 92.6719 197.433 95.5803C196.445 98.4887 195.95 101.601 195.95 104.916C195.95 108.232 196.445 111.373 197.433 114.34C198.48 117.248 199.964 119.807 201.883 122.018C203.861 124.228 206.188 125.944 208.864 127.166C211.539 128.387 214.535 128.998 217.851 128.998Z" fill="white"/>
<mask id="mask0_151_168" style="mask-type:alpha" maskUnits="userSpaceOnUse" x="55" y="0" width="65" height="66">
<path d="M87.7964 65.2649C83.2593 65.2649 79.0421 64.4506 75.1448 62.8218C71.3057 61.135 67.9319 58.8082 65.0235 55.8416C62.1732 52.875 59.9337 49.414 58.305 45.4586C56.7345 41.445 55.9492 37.1405 55.9492 32.5452C55.9492 27.9499 56.7345 23.6745 58.305 19.7191C59.9337 15.7636 62.1732 12.3317 65.0235 9.42328C67.9319 6.45669 71.3057 4.15904 75.1448 2.53032C79.0421 0.843441 83.2593 0 87.7964 0C92.3335 0 96.5216 0.843441 100.361 2.53032C104.258 4.15904 107.632 6.45669 110.482 9.42328C113.39 12.3317 115.63 15.7636 117.201 19.7191C118.829 23.6745 119.644 27.9499 119.644 32.5452C119.644 37.1405 118.829 41.445 117.201 45.4586C115.63 49.414 113.39 52.875 110.482 55.8416C107.632 58.8082 104.258 61.135 100.361 62.8218C96.5216 64.4506 92.3335 65.2649 87.7964 65.2649ZM87.7964 56.6269C91.112 56.6269 94.1077 56.0161 96.7834 54.7946C99.4592 53.5731 101.757 51.8571 103.676 49.6467C105.654 47.4363 107.137 44.8769 108.126 41.9685C109.173 39.0019 109.697 35.8608 109.697 32.5452C109.697 29.2296 109.173 26.1176 108.126 23.2092C107.137 20.3008 105.654 17.7704 103.676 15.6182C101.757 13.4078 99.4592 11.6918 96.7834 10.4703C94.1077 9.24877 91.112 8.63801 87.7964 8.63801C84.4808 8.63801 81.4851 9.24877 78.8094 10.4703C76.1336 11.6918 73.8069 13.4078 71.8292 15.6182C69.9096 17.7704 68.4263 20.3008 67.3793 23.2092C66.3904 26.1176 65.896 29.2296 65.896 32.5452C65.896 35.8608 66.3904 39.0019 67.3793 41.9685C68.4263 44.8769 69.9096 47.4363 71.8292 49.6467C73.8069 51.8571 76.1336 53.5731 78.8094 54.7946C81.4851 56.0161 84.4808 56.6269 87.7964 56.6269Z" fill="white"/>
</mask>
<g mask="url(#mask0_151_168)">
<rect width="111.792" height="51.8062" transform="matrix(1 0 0 -1 31.4102 89.9766)" fill="white"/>
</g>
<path d="M48.4259 201.437C48.4259 204.52 47.6115 207.399 45.9828 210.075C44.3541 212.692 41.911 214.815 38.6536 216.444C35.3962 218.073 31.3826 218.887 26.6128 218.887C21.9011 218.887 17.8584 218.073 14.4847 216.444C11.1691 214.757 8.60965 212.46 6.80643 209.551C5.00321 206.643 4.01435 203.269 3.83984 199.43H8.20247C8.60965 204.2 10.2965 208.039 13.2631 210.947C16.2879 213.856 20.7378 215.31 26.6128 215.31C29.812 215.31 32.7204 214.786 35.338 213.739C38.0138 212.634 40.1369 211.064 41.7075 209.028C43.278 206.992 44.0633 204.607 44.0633 201.873C44.0633 198.208 42.9581 195.474 40.7477 193.671C38.5954 191.81 34.989 190.356 29.9284 189.309L22.7737 187.825C20.7959 187.418 18.7891 186.866 16.7532 186.168C14.7755 185.47 12.9432 184.539 11.2563 183.375C9.6276 182.154 8.28972 180.612 7.24269 178.751C6.25383 176.89 5.7594 174.563 5.7594 171.771C5.7594 168.572 6.63193 165.663 8.37698 163.046C10.122 160.428 12.536 158.363 15.6189 156.851C18.7019 155.28 22.2792 154.495 26.351 154.495C30.2483 154.495 33.7384 155.28 36.8213 156.851C39.9624 158.421 42.5218 160.632 44.4995 163.482C46.4773 166.274 47.5534 169.648 47.7279 173.603H43.278C43.1035 170.578 42.2891 167.903 40.8349 165.576C39.3807 163.249 37.4321 161.417 34.989 160.079C32.5459 158.741 29.6666 158.072 26.351 158.072C22.8609 158.072 19.8943 158.741 17.4512 160.079C15.0663 161.359 13.234 163.017 11.9543 165.052C10.7328 167.088 10.122 169.27 10.122 171.596C10.122 174.447 10.82 176.686 12.2161 178.315C13.6121 179.885 15.4153 181.107 17.6257 181.979C19.8943 182.852 22.3374 183.579 24.955 184.161L32.0224 185.644C37.1994 186.749 41.213 188.465 44.0633 190.792C46.9717 193.06 48.4259 196.609 48.4259 201.437Z" fill="white"/>
<path d="M81.0059 218.015H76.8177V159.119H55.3536V155.367H102.383V159.119H81.0059V218.015Z" fill="white"/>
<path d="M157.006 155.367V197.336C157.006 201.931 156.075 205.887 154.213 209.202C152.352 212.46 149.764 214.961 146.448 216.706C143.191 218.451 139.41 219.324 135.105 219.324C130.801 219.324 126.991 218.451 123.675 216.706C120.359 214.961 117.771 212.46 115.91 209.202C114.106 205.887 113.205 201.931 113.205 197.336V155.367H117.48V197.685C117.48 201.349 118.236 204.52 119.749 207.195C121.319 209.871 123.442 211.936 126.118 213.39C128.794 214.845 131.79 215.572 135.105 215.572C138.479 215.572 141.475 214.845 144.092 213.39C146.768 211.936 148.891 209.871 150.462 207.195C152.032 204.52 152.817 201.349 152.817 197.685V155.367H157.006Z" fill="white"/>
<path d="M189.38 218.015H173.151V155.367H189.38C196.127 155.367 201.799 156.705 206.394 159.381C210.989 161.999 214.45 165.634 216.777 170.288C219.104 174.941 220.267 180.351 220.267 186.517C220.267 192.508 219.075 197.888 216.69 202.658C214.305 207.37 210.786 211.122 206.132 213.914C201.537 216.648 195.953 218.015 189.38 218.015ZM177.426 159.032V214.35H189.38C195.08 214.35 199.908 213.187 203.864 210.86C207.819 208.475 210.815 205.189 212.851 201C214.945 196.754 215.992 191.926 215.992 186.517C215.992 180.991 214.974 176.163 212.938 172.033C210.902 167.903 207.906 164.703 203.951 162.435C199.995 160.166 195.138 159.032 189.38 159.032H177.426Z" fill="white"/>
<path d="M237.368 218.015H233.093V155.367H237.368V218.015Z" fill="white"/>
<path d="M281.502 219.324C276.965 219.324 272.777 218.48 268.938 216.793C265.099 215.048 261.754 212.692 258.904 209.726C256.112 206.759 253.93 203.298 252.36 199.343C250.847 195.329 250.091 191.083 250.091 186.604C250.091 182.125 250.847 177.908 252.36 173.952C253.93 169.997 256.112 166.536 258.904 163.569C261.754 160.603 265.099 158.276 268.938 156.589C272.777 154.902 276.965 154.059 281.502 154.059C286.039 154.059 290.227 154.902 294.066 156.589C297.906 158.276 301.221 160.603 304.013 163.569C306.863 166.536 309.074 169.997 310.644 173.952C312.215 177.908 313 182.125 313 186.604C313 191.083 312.215 195.329 310.644 199.343C309.074 203.298 306.863 206.759 304.013 209.726C301.221 212.692 297.906 215.048 294.066 216.793C290.227 218.48 286.039 219.324 281.502 219.324ZM281.502 215.572C285.516 215.572 289.151 214.815 292.409 213.303C295.724 211.791 298.574 209.726 300.959 207.108C303.402 204.491 305.264 201.437 306.543 197.947C307.881 194.398 308.55 190.617 308.55 186.604C308.55 182.59 307.881 178.838 306.543 175.348C305.264 171.8 303.402 168.746 300.959 166.187C298.574 163.569 295.724 161.533 292.409 160.079C289.151 158.567 285.516 157.81 281.502 157.81C277.547 157.81 273.911 158.567 270.595 160.079C267.338 161.533 264.488 163.569 262.045 166.187C259.66 168.746 257.798 171.8 256.461 175.348C255.123 178.838 254.454 182.59 254.454 186.604C254.454 190.617 255.123 194.398 256.461 197.947C257.798 201.437 259.66 204.491 262.045 207.108C264.488 209.726 267.338 211.791 270.595 213.303C273.911 214.815 277.547 215.572 281.502 215.572Z" fill="white"/>
</svg>
