<svg width="177" height="113" viewBox="0 0 177 113" fill="none" xmlns="http://www.w3.org/2000/svg">
<path d="M83.13 70.6601C83.13 95.1701 68.51 112.22 41.41 112.22C14.31 112.22 0.3 95.1701 0 71.8701H23.14C23.44 83.4401 28.16 91.5101 41.41 91.5101C54.66 91.5101 59.83 83.5901 59.83 71.2601V0.620117H83.13V70.6501V70.6601Z" fill="#1C2626"/>
<path d="M125.72 47.97L106.99 44.17C105.34 43.85 103.72 43.45 102.2 42.94V64.58L116.12 67.31C125.41 69.13 130.74 73.24 130.74 80.09C130.74 88.93 122.36 94.1 110.63 94.1C107.49 94.1 104.68 93.73 102.2 93.01V111.67C105.03 112.04 107.99 112.23 111.09 112.23C138.49 112.23 155.24 97.61 155.24 76.76C155.24 60.62 144.9 51.78 125.71 47.98L125.72 47.97ZM109.59 0C107.05 0 104.58 0.170003 102.21 0.480003V19.15C104.43 18.4 107 17.97 109.88 17.97C121.47 17.97 129.37 25.72 130.14 37.14H153.59C152.07 14.31 134.1 0 109.6 0H109.59Z" fill="#1C2626"/>
<path d="M166.73 112.23C172.132 112.23 176.51 107.851 176.51 102.45C176.51 97.0486 172.132 92.6699 166.73 92.6699C161.329 92.6699 156.95 97.0486 156.95 102.45C156.95 107.851 161.329 112.23 166.73 112.23Z" fill="#1C2626"/>
</svg>
