<svg width="828" height="1448" viewBox="0 0 828 1448" fill="none" xmlns="http://www.w3.org/2000/svg">
<g clip-path="url(#clip0_449_2425)">
<path d="M298.007 697.982L298.047 698.415V698.415L298.007 697.982ZM825.578 1133.17L826.011 1133.12V1133.12L825.578 1133.17ZM394.275 1663.92L394.229 1663.49V1663.49L394.275 1663.92ZM-140.389 1229.44L-140.821 1229.48H-140.821L-140.389 1229.44ZM676.676 1127.49L676.247 1127.56V1127.56L676.676 1127.49ZM284.588 846.709L284.66 847.138V847.138L284.588 846.709ZM5.54785 1236.36L5.11885 1236.43V1236.43L5.54785 1236.36ZM393.462 1517.82L393.529 1518.25V1518.25L393.462 1517.82ZM298.007 697.982L298.047 698.415C563.359 673.938 798.721 868.088 825.146 1133.21L825.578 1133.17L826.011 1133.12C799.538 867.527 563.755 673.029 297.967 697.55L298.007 697.982ZM825.578 1133.17L825.146 1133.21C851.57 1398.34 659.153 1635.12 394.229 1663.49L394.275 1663.92L394.322 1664.35C659.72 1635.93 852.483 1398.72 826.011 1133.12L825.578 1133.17ZM394.275 1663.92L394.229 1663.49C126.545 1692.15 -113.257 1497.28 -139.956 1229.4L-140.389 1229.44L-140.821 1229.48C-114.074 1497.85 126.158 1693.07 394.322 1664.35L394.275 1663.92ZM-140.389 1229.44L-139.956 1229.4C-166.656 961.504 29.9686 723.143 298.047 698.415L298.007 697.982L297.967 697.55C29.4083 722.322 -167.568 961.11 -140.821 1229.48L-140.389 1229.44ZM676.676 1127.49L677.105 1127.42C646.868 941.037 470.706 814.882 284.516 846.28L284.588 846.709L284.66 847.138C470.375 815.82 646.088 941.652 676.247 1127.56L676.676 1127.49ZM284.588 846.709L284.516 846.28C99.9596 877.397 -24.8482 1051.69 5.11885 1236.43L5.54785 1236.36L5.97685 1236.29C-23.9136 1052.02 100.575 878.175 284.66 847.138L284.588 846.709ZM5.54785 1236.36L5.11885 1236.43C35.0919 1421.18 208.601 1547.07 393.529 1518.25L393.462 1517.82L393.395 1517.39C208.94 1546.13 35.8734 1420.57 5.97685 1236.29L5.54785 1236.36ZM393.462 1517.82L393.529 1518.25C580.091 1489.17 707.341 1313.8 677.105 1127.42L676.676 1127.49L676.247 1127.56C706.406 1313.46 579.481 1488.39 393.395 1517.39L393.462 1517.82Z" fill="#F3F2ED"/>
<path d="M-148.2 2.14077L-0.0810293 0C4.00316 82.5747 35.086 161.526 88.3957 224.726C252.206 419.942 583.581 356.801 659.979 112.528C673.002 70.8844 675.317 43.3894 678.653 0.4606C727.891 -0.245013 779.789 1.80598 829.236 3.00193C826.623 53.4772 821.696 81.2173 811.267 130.473C637.315 664.275 -121.835 559.976 -148.2 2.14077Z" stroke="#F3F2ED" stroke-width="0.869215"/>
</g>
<g clip-path="url(#clip1_449_2425)">
<path d="M297.205 697.741L297.245 698.174V698.174L297.205 697.741ZM824.777 1133.16L825.21 1133.12V1133.12L824.777 1133.16ZM393.474 1664.2L393.427 1663.77V1663.77L393.474 1664.2ZM-141.19 1229.49L-141.623 1229.53H-141.623L-141.19 1229.49ZM675.875 1127.48L675.446 1127.55V1127.55L675.875 1127.48ZM283.787 846.55L283.859 846.978V846.978L283.787 846.55ZM4.74707 1236.42L4.31807 1236.48V1236.48L4.74707 1236.42ZM392.66 1518.02L392.727 1518.45V1518.45L392.66 1518.02ZM297.205 697.741L297.245 698.174C562.557 673.684 797.92 867.939 824.345 1133.2L824.777 1133.16L825.21 1133.12C798.738 867.378 562.953 672.774 297.165 697.308L297.205 697.741ZM824.777 1133.16L824.345 1133.2C850.77 1398.48 658.351 1635.39 393.427 1663.77L393.474 1664.2L393.52 1664.63C658.919 1636.2 851.682 1398.86 825.21 1133.12L824.777 1133.16ZM393.474 1664.2L393.427 1663.77C125.744 1692.45 -114.058 1497.48 -140.758 1229.45L-141.19 1229.49L-141.623 1229.53C-114.875 1498.04 125.356 1693.37 393.52 1664.63L393.474 1664.2ZM-141.19 1229.49L-140.758 1229.45C-167.458 961.406 29.1671 722.916 297.245 698.174L297.205 697.741L297.165 697.308C28.6063 722.094 -168.37 961.013 -141.623 1229.53L-141.19 1229.49ZM675.875 1127.48L676.304 1127.41C646.068 940.93 469.906 814.706 283.715 846.121L283.787 846.55L283.859 846.978C469.574 815.644 645.287 941.544 675.446 1127.55L675.875 1127.48ZM283.787 846.55L283.715 846.121C99.1584 877.255 -25.6489 1051.64 4.31807 1236.48L4.74707 1236.42L5.17607 1236.35C-24.7144 1051.97 99.7747 878.032 283.859 846.978L283.787 846.55ZM4.74707 1236.42L4.31807 1236.48C34.291 1421.33 207.8 1547.29 392.727 1518.45L392.66 1518.02L392.593 1517.59C208.138 1546.35 35.0726 1420.72 5.17607 1236.35L4.74707 1236.42ZM392.66 1518.02L392.727 1518.45C579.289 1489.36 706.54 1313.89 676.304 1127.41L675.875 1127.48L675.446 1127.55C705.605 1313.55 578.679 1488.58 392.593 1517.59L392.66 1518.02Z" fill="#BAB6AA"/>
<path d="M-149 2.14193L-0.880834 0C3.20335 82.6195 34.2862 161.613 87.5959 224.848C251.406 420.17 582.781 356.995 659.179 112.589C672.203 70.9229 674.517 43.4129 677.853 0.46085C727.091 -0.245146 778.989 1.80696 828.436 3.00356C825.823 53.5062 820.896 81.2614 810.467 130.544C636.515 664.636 -122.635 560.28 -149 2.14193Z" stroke="#BAB6AA" stroke-width="0.869215"/>
</g>
<defs>
<clipPath id="clip0_449_2425">
<rect width="353" height="720" fill="white" transform="translate(475 238)"/>
</clipPath>
<clipPath id="clip1_449_2425">
<rect width="475" height="1448" fill="white"/>
</clipPath>
</defs>
</svg>
