<svg width="978" height="1448" viewBox="0 0 978 1448" fill="none" xmlns="http://www.w3.org/2000/svg">
<g clip-path="url(#clip0_451_2730)">
<path d="M446.646 697.986L446.686 698.419V698.419L446.646 697.986ZM974.217 1133.17L974.649 1133.13V1133.13L974.217 1133.17ZM542.914 1663.92L542.868 1663.49V1663.49L542.914 1663.92ZM8.25012 1229.44L7.81766 1229.49H7.81766L8.25012 1229.44ZM825.315 1127.49L824.886 1127.56V1127.56L825.315 1127.49ZM433.227 846.713L433.299 847.141V847.141L433.227 846.713ZM154.187 1236.37L153.758 1236.44V1236.44L154.187 1236.37ZM542.101 1517.82L542.168 1518.25V1518.25L542.101 1517.82ZM446.646 697.986L446.686 698.419C711.998 673.942 947.359 868.092 973.784 1133.21L974.217 1133.17L974.649 1133.13C948.177 867.531 712.393 673.033 446.606 697.554L446.646 697.986ZM974.217 1133.17L973.784 1133.21C1000.21 1398.34 807.792 1635.12 542.868 1663.49L542.914 1663.92L542.96 1664.35C808.359 1635.94 1001.12 1398.73 974.649 1133.13L974.217 1133.17ZM542.914 1663.92L542.868 1663.49C275.184 1692.16 35.3823 1497.29 8.68259 1229.4L8.25012 1229.44L7.81766 1229.49C34.5652 1497.85 274.797 1693.07 542.96 1664.35L542.914 1663.92ZM8.25012 1229.44L8.68259 1229.4C-18.0169 961.508 178.607 723.147 446.686 698.419L446.646 697.986L446.606 697.554C178.047 722.326 -18.9297 961.114 7.81766 1229.49L8.25012 1229.44ZM825.315 1127.49L825.744 1127.42C795.507 941.041 619.345 814.886 433.154 846.284L433.227 846.713L433.299 847.141C619.014 815.824 794.726 941.656 824.886 1127.56L825.315 1127.49ZM433.227 846.713L433.154 846.284C248.598 877.401 123.791 1051.69 153.758 1236.44L154.187 1236.37L154.616 1236.3C124.725 1052.02 249.214 878.179 433.299 847.141L433.227 846.713ZM154.187 1236.37L153.758 1236.44C183.731 1421.18 357.24 1547.07 542.168 1518.25L542.101 1517.82L542.034 1517.39C357.579 1546.14 184.512 1420.57 154.616 1236.3L154.187 1236.37ZM542.101 1517.82L542.168 1518.25C728.73 1489.18 855.98 1313.8 825.744 1127.42L825.315 1127.49L824.886 1127.56C855.045 1313.46 728.119 1488.39 542.034 1517.39L542.101 1517.82Z" fill="#F3F2ED"/>
<path d="M0.439087 2.76968L148.558 0.628906C152.642 83.2036 183.725 162.155 237.035 225.355C400.845 420.571 732.22 357.43 808.618 113.156C821.642 71.5133 823.956 44.0183 827.293 1.08951C876.53 0.383893 928.429 2.43488 977.875 3.63084C975.262 54.1061 970.335 81.8462 959.906 131.102C785.954 664.904 26.8039 560.605 0.439087 2.76968Z" stroke="#F3F2ED" stroke-width="0.869215"/>
</g>
<g clip-path="url(#clip1_451_2730)">
<path d="M447.206 697.743L447.246 698.176V698.176L447.206 697.743ZM974.777 1133.16L975.21 1133.12V1133.12L974.777 1133.16ZM543.473 1664.2L543.427 1663.77V1663.77L543.473 1664.2ZM8.81024 1229.49L8.37777 1229.53H8.37777L8.81024 1229.49ZM825.875 1127.48L825.446 1127.55V1127.55L825.875 1127.48ZM433.787 846.552L433.859 846.98V846.98L433.787 846.552ZM154.747 1236.42L154.318 1236.49V1236.49L154.747 1236.42ZM542.661 1518.03L542.728 1518.46V1518.46L542.661 1518.03ZM447.206 697.743L447.246 698.176C712.557 673.686 947.92 867.941 974.345 1133.21L974.777 1133.16L975.21 1133.12C948.737 867.38 712.954 672.776 447.166 697.31L447.206 697.743ZM974.777 1133.16L974.345 1133.21C1000.77 1398.48 808.351 1635.39 543.427 1663.77L543.473 1664.2L543.52 1664.64C808.918 1636.2 1001.68 1398.87 975.21 1133.12L974.777 1133.16ZM543.473 1664.2L543.427 1663.77C275.744 1692.45 35.9426 1497.48 9.24271 1229.45L8.81024 1229.49L8.37777 1229.53C35.1254 1498.05 275.356 1693.37 543.52 1664.64L543.473 1664.2ZM8.81024 1229.49L9.24271 1229.45C-17.457 961.408 179.168 722.917 447.246 698.176L447.206 697.743L447.166 697.31C178.607 722.096 -18.3697 961.015 8.37777 1229.53L8.81024 1229.49ZM825.875 1127.48L826.304 1127.41C796.067 940.932 619.906 814.708 433.715 846.123L433.787 846.552L433.859 846.98C619.574 815.646 795.286 941.546 825.446 1127.55L825.875 1127.48ZM433.787 846.552L433.715 846.123C249.158 877.257 124.351 1051.64 154.318 1236.49L154.747 1236.42L155.176 1236.35C125.285 1051.97 249.774 878.034 433.859 846.98L433.787 846.552ZM154.747 1236.42L154.318 1236.49C184.291 1421.33 357.8 1547.29 542.728 1518.46L542.661 1518.03L542.594 1517.6C358.139 1546.36 185.072 1420.72 155.176 1236.35L154.747 1236.42ZM542.661 1518.03L542.728 1518.46C729.29 1489.36 856.54 1313.89 826.304 1127.41L825.875 1127.48L825.446 1127.55C855.605 1313.56 728.679 1488.58 542.594 1517.6L542.661 1518.03Z" fill="#BAB6AA"/>
<path d="M0.999634 2.14584L149.119 0.00390625C153.203 82.6234 184.286 161.617 237.596 224.852C401.405 420.174 732.781 356.999 809.178 112.593C822.202 70.9268 824.516 43.4169 827.853 0.464757C877.091 -0.24124 928.989 1.81086 978.436 3.00747C975.823 53.5101 970.895 81.2653 960.467 130.547C786.515 664.64 27.3645 560.284 0.999634 2.14584Z" stroke="#BAB6AA" stroke-width="0.869215"/>
</g>
<defs>
<clipPath id="clip0_451_2730">
<rect width="353.361" height="720" fill="white" transform="translate(624.639 238)"/>
</clipPath>
<clipPath id="clip1_451_2730">
<rect width="624.639" height="1448" fill="white"/>
</clipPath>
</defs>
</svg>
