<svg width="31" height="54" viewBox="0 0 31 54" fill="none" xmlns="http://www.w3.org/2000/svg">
<g clip-path="url(#clip0_885_169)">
<path d="M15.42 53.1212C6.92 53.1212 0 46.2013 0 37.7013C0 29.2013 6.92 22.2812 15.42 22.2812C23.92 22.2812 30.84 29.2013 30.84 37.7013C30.84 46.2013 23.92 53.1212 15.42 53.1212ZM15.42 26.8512C9.44 26.8512 4.57 31.7213 4.57 37.7013C4.57 43.6812 9.44 48.5512 15.42 48.5512C21.4 48.5512 26.27 43.6812 26.27 37.7013C26.27 31.7213 21.4 26.8512 15.42 26.8512Z" fill="#1C2626"/>
<path d="M26.27 0C26.25 5.97 21.39 10.82 15.42 10.82C9.45 10.82 4.59 5.97 4.57 0H0C0.02 8.49 6.92 15.39 15.42 15.39C23.92 15.39 30.82 8.49 30.84 0H26.27Z" fill="#1C2626"/>
</g>
<defs>
<clipPath id="clip0_885_169">
<rect width="30.84" height="53.12" fill="white"/>
</clipPath>
</defs>
</svg>
